<svg width="32" height="32" viewBox="0 0 32 32" fill="none" xmlns="http://www.w3.org/2000/svg">
<path d="M12.6812 17.8179C6.89087 14.5408 3.68278 9.3614 5.51572 6.24932C7.34866 3.13723 13.5285 3.27097 19.3188 6.54803C25.1091 9.82509 28.3172 15.0045 26.4843 18.1166C24.6514 21.2287 18.4715 21.0949 12.6812 17.8179Z" fill="#B882E1"/>
<path d="M19.3188 25.452C13.5285 28.729 7.34864 28.8628 5.5157 25.7507C3.68276 22.6386 6.89085 17.4592 12.6812 14.1821C18.4715 10.9051 24.6513 10.7713 26.4843 13.8834C28.3172 16.9955 25.1091 22.1749 19.3188 25.452Z" fill="white" fill-opacity="0.3"/>
<path d="M9.96293 15.9992C10.7863 16.6471 11.6964 17.2595 12.6812 17.8169C18.4715 21.0939 24.6514 21.2277 26.4843 18.1156C26.5309 18.0365 26.5742 17.9561 26.6143 17.8744C26.8493 17.2281 26.9804 16.5978 26.9979 15.9989C26.9803 15.4004 26.8492 14.7703 26.6145 14.1244C26.5743 14.0426 26.5309 13.9626 26.4843 13.8834C24.6513 10.7713 18.4715 10.9051 12.6812 14.1821C11.6964 14.7395 10.7862 15.3514 9.96293 15.9992Z" fill="#DCAFFF"/>
</svg>
