<svg width="24" height="24" viewBox="0 0 24 24" fill="none" xmlns="http://www.w3.org/2000/svg">
<path d="M12.984 4.98293C12.9837 4.77508 13.0543 4.57282 13.1849 4.40673C13.3155 4.24064 13.499 4.11976 13.7078 4.06236C13.9166 4.00496 14.1392 4.01417 14.342 4.08859C14.5449 4.16301 14.7168 4.2986 14.832 4.47486L17.52 7.0468C17.6128 7.13569 17.6864 7.24122 17.7367 7.35735C17.7869 7.47347 17.8127 7.59793 17.8127 7.72361C17.8126 7.84928 17.7867 7.97372 17.7364 8.08981C17.6861 8.20591 17.6124 8.31138 17.5195 8.40022C17.4265 8.48906 17.3163 8.55951 17.1949 8.60757C17.0735 8.65562 16.9435 8.68033 16.8121 8.68028C16.6808 8.68024 16.5507 8.65544 16.4294 8.60731C16.308 8.55917 16.1978 8.48864 16.105 8.39974L14.985 7.32714V14.5512C14.985 14.8049 14.8796 15.0483 14.6921 15.2277C14.5045 15.4072 14.2502 15.508 13.985 15.508C13.7197 15.508 13.4654 15.4072 13.2779 15.2277C13.0903 15.0483 12.985 14.8049 12.985 14.5512V4.98293H12.984ZM11.016 18.3918C11.0162 18.5997 10.9457 18.8019 10.8151 18.968C10.6845 19.1341 10.5009 19.255 10.2921 19.3124C10.0833 19.3698 9.86071 19.3606 9.65789 19.2862C9.45507 19.2118 9.28309 19.0762 9.16796 18.8999L6.47996 16.328C6.29245 16.1484 6.18716 15.905 6.18726 15.6512C6.18735 15.3973 6.29282 15.154 6.48046 14.9745C6.6681 14.7951 6.92254 14.6944 7.18781 14.6945C7.45308 14.6946 7.70745 14.7955 7.89496 14.975L9.01496 16.0476V8.82361C9.01496 8.56985 9.12031 8.32648 9.30785 8.14704C9.49539 7.9676 9.74974 7.86679 10.015 7.86679C10.2802 7.86679 10.5345 7.9676 10.7221 8.14704C10.9096 8.32648 11.015 8.56985 11.015 8.82361V18.3918H11.016Z" fill="#303030"/>
</svg>
