<svg width="20" height="20" viewBox="0 0 20 20" fill="none" xmlns="http://www.w3.org/2000/svg">
<g opacity="0.3">
<path d="M13.1565 5.52138L7.16943 11.3915C6.99578 11.5559 6.85727 11.7526 6.76198 11.9701C6.66669 12.1876 6.61654 12.4215 6.61444 12.6582C6.61234 12.8949 6.65834 13.1296 6.74976 13.3487C6.84118 13.5677 6.97618 13.7668 7.14689 13.9342C7.3176 14.1015 7.5206 14.2339 7.74404 14.3235C7.96748 14.4131 8.20689 14.4583 8.4483 14.4562C8.68971 14.4541 8.92828 14.405 9.1501 14.3115C9.37192 14.2181 9.57254 14.0823 9.74025 13.9121L15.571 8.04197C16.2334 7.36957 16.5999 6.46899 16.5916 5.53421C16.5833 4.59943 16.2009 3.70524 15.5267 3.04422C14.8525 2.3832 13.9405 2.00826 12.9871 2.00013C12.0337 1.99201 11.1151 2.35136 10.4293 3.00079L4.59769 8.86999C3.5747 9.87298 3 11.2333 3 12.6518C3 14.0702 3.5747 15.4305 4.59769 16.4335C5.62067 17.4365 7.00813 18 8.45484 18C9.90155 18 11.289 17.4365 12.312 16.4335L18 10.8692" stroke="white" stroke-width="1.5" stroke-linecap="round" stroke-linejoin="round"/>
</g>
</svg>
