<svg width="20" height="20" viewBox="0 0 20 20" fill="none" xmlns="http://www.w3.org/2000/svg">
<g id="Iconly/Bulk/Video">
<g id="Video">
<path id="Fill 1" opacity="0.4" d="M18.4884 6.11705C18.1252 5.88828 17.6789 5.86805 17.2984 6.06162L16.014 6.71008C15.5391 6.9494 15.2444 7.43333 15.2444 7.9718V13.0275C15.2444 13.566 15.5391 14.049 16.014 14.2901L17.2975 14.9377C17.4717 15.0274 17.6581 15.0706 17.8444 15.0706C18.068 15.0706 18.2899 15.0072 18.4884 14.8831C18.8515 14.6553 19.0682 14.2602 19.0682 13.8273V7.17377C19.0682 6.74087 18.8515 6.34581 18.4884 6.11705Z" fill="white"/>
<path id="Fill 3" d="M9.94685 17H4.92706C2.82797 17 1.36243 15.5526 1.36243 13.4805V7.51946C1.36243 5.4465 2.82797 4 4.92706 4H9.94685C12.0459 4 13.5115 5.4465 13.5115 7.51946V13.4805C13.5115 15.5526 12.0459 17 9.94685 17Z" fill="white"/>
</g>
</g>
</svg>
